<svg xmlns="http://www.w3.org/2000/svg" xmlns:xlink="http://www.w3.org/1999/xlink" width="1420" zoomAndPan="magnify" viewBox="50 655 1420 200" height="200" preserveAspectRatio="xMidYMid meet" version="1.0"><defs><clipPath id="5930c30aff"><path d="M 80.820312 674.71875 L 1439.070312 674.71875 L 1439.070312 827.71875 L 80.820312 827.71875 Z M 80.820312 674.71875 " clip-rule="nonzero"/></clipPath></defs><g clip-path="url(#5930c30aff)"><path fill="#38b6ff" d="M 132.722656 819.253906 C 138.84375 817.867188 144.863281 816.507812 151.253906 815.058594 C 173.664062 809.929688 203.835938 802.722656 230.652344 796.417969 C 235.144531 795.238281 240.113281 793.933594 245.453125 792.527344 C 254.507812 790.199219 260.382812 789.34375 263.988281 789.046875 C 267.597656 788.753906 268.9375 789.035156 268.9375 789.035156 L 280.203125 785.9375 C 287.042969 784.421875 290.84375 783.582031 290.84375 783.582031 C 290.84375 783.582031 285.664062 785.359375 290.996094 784.242188 C 294.554688 783.496094 298.820312 782.363281 303.792969 780.839844 C 311.253906 778.589844 298.039062 781.566406 303.609375 780.050781 C 309.179688 778.546875 321.03125 775.96875 327.875 774.46875 C 334.722656 772.980469 336.984375 772.410156 345.3125 770.425781 C 353.636719 768.449219 358.996094 767.460938 366.578125 765.71875 C 372.195312 764.417969 376 763.492188 381.972656 762.167969 C 385.222656 761.46875 388.558594 760.785156 391.773438 760.132812 C 403.230469 757.875 415.796875 755.644531 420.691406 754.757812 C 426.039062 753.746094 445.085938 749.882812 445.960938 750.324219 C 446.835938 750.71875 459.066406 748.527344 468.128906 746.285156 L 468.28125 747.082031 L 488.132812 743.40625 C 491.082031 742.90625 494.023438 742.378906 496.972656 741.902344 L 505.820312 740.46875 C 506.566406 740.367188 507.355469 740.257812 508.09375 740.160156 L 508.234375 740.953125 L 508.242188 741.003906 L 523.5625 738.769531 L 530.191406 737.4375 C 537.855469 736.601562 545.164062 735.824219 551.46875 735.273438 L 554.144531 735.703125 C 560.515625 734.3125 567.394531 732.863281 574.78125 731.359375 C 578.472656 730.585938 582.300781 729.894531 586.253906 729.15625 C 590.207031 728.433594 594.289062 727.6875 598.492188 726.917969 C 604.65625 725.816406 615.289062 724.207031 627.410156 722.441406 C 630.613281 721.980469 632.945312 721.613281 635.402344 721.296875 C 647.066406 719.722656 651.199219 719.078125 651.199219 719.078125 C 655.03125 718.503906 658.859375 717.875 662.695312 717.34375 C 669.644531 716.710938 673.5 716.363281 673.5 716.363281 C 673.5 716.363281 670.277344 717.050781 671.84375 717.09375 C 672.207031 717.101562 672.550781 717.117188 673.570312 717.035156 C 676.300781 716.816406 677.660156 716.707031 679.3125 716.484375 C 680.933594 716.265625 682.839844 715.9375 686.632812 715.285156 C 690.457031 714.640625 689.015625 714.640625 687.328125 714.691406 C 685.640625 714.757812 683.707031 714.886719 686.550781 714.476562 C 692.242188 713.699219 704.285156 712.785156 711.234375 712.21875 C 714.707031 711.933594 717.023438 711.742188 719.53125 711.535156 C 722.039062 711.308594 724.738281 711.070312 728.980469 710.691406 C 737.46875 709.949219 742.886719 709.691406 750.605469 709.160156 C 756.332031 708.730469 760.210938 708.402344 766.289062 708.007812 C 767.941406 707.917969 769.613281 707.824219 771.28125 707.734375 C 772.949219 707.667969 774.609375 707.601562 776.242188 707.539062 C 780.769531 707.394531 785.429688 707.28125 789.734375 707.1875 C 794.039062 707.109375 797.980469 706.988281 801.074219 707.003906 C 802.824219 706.992188 804.417969 706.976562 805.507812 706.96875 C 807.742188 706.925781 812.3125 706.835938 816.96875 706.742188 C 821.625 706.667969 826.371094 706.582031 828.960938 706.738281 C 832.992188 706.523438 836.703125 706.328125 840.949219 706.101562 C 844.070312 705.988281 848.316406 705.835938 853.304688 705.65625 C 858.296875 705.570312 864.035156 705.5 870.148438 705.453125 C 874.789062 705.410156 878.605469 705.378906 881.726562 705.351562 C 884.84375 705.363281 887.257812 705.371094 889.09375 705.378906 C 892.769531 705.363281 894.121094 705.359375 894.121094 705.359375 L 905.730469 705.238281 C 909.210938 705.332031 911.910156 705.535156 913.746094 705.628906 C 915.578125 705.738281 916.542969 705.796875 916.542969 705.796875 C 916.542969 705.796875 911.117188 706.105469 916.515625 706.472656 C 920.121094 706.71875 924.503906 706.78125 929.667969 706.660156 C 937.414062 706.480469 923.96875 705.820312 929.707031 705.851562 C 930.3125 705.867188 931.21875 705.886719 931.949219 705.90625 C 933.503906 705.945312 935.296875 705.984375 937.207031 706.089844 C 939.117188 706.214844 941.148438 706.34375 943.183594 706.472656 C 947.242188 706.765625 951.308594 707.054688 954.414062 707.277344 C 955.878906 707.378906 957.140625 707.464844 958.339844 707.550781 C 958.839844 707.582031 959.324219 707.613281 959.816406 707.644531 C 960.023438 707.652344 960.238281 707.664062 960.457031 707.675781 C 960.863281 707.695312 961.304688 707.675781 961.835938 707.765625 C 962.367188 707.859375 962.996094 708.042969 963.679688 708.492188 C 964.863281 709.289062 965.417969 710.421875 965.632812 711.503906 C 965.839844 712.601562 965.710938 713.730469 965.191406 714.878906 C 964.996094 715.308594 964.738281 715.660156 964.507812 716.011719 C 964.371094 716.210938 964.234375 716.410156 964.105469 716.605469 L 964.003906 716.753906 L 963.761719 717.09375 L 963.234375 717.832031 C 961.824219 719.796875 960.386719 721.796875 958.609375 724.21875 C 958.324219 724.601562 958.035156 724.988281 957.746094 725.375 C 957.261719 726.054688 956.8125 726.6875 956.320312 727.378906 C 955.589844 728.398438 954.898438 729.371094 954.234375 730.304688 C 953.796875 730.941406 953.351562 731.542969 952.96875 732.179688 C 952.59375 732.820312 952.226562 733.449219 951.871094 734.058594 C 950.535156 736.578125 949.566406 739 948.9375 741.257812 C 948.757812 741.8125 948.652344 742.375 948.519531 742.914062 C 948.402344 743.453125 948.273438 743.976562 948.1875 744.488281 C 948.035156 745.523438 947.859375 746.488281 947.796875 747.40625 C 947.628906 749.238281 947.640625 750.832031 947.695312 752.203125 C 947.746094 752.886719 947.796875 753.515625 947.84375 754.089844 C 947.890625 754.667969 947.988281 755.1875 948.054688 755.660156 C 948.128906 756.132812 948.191406 756.558594 948.261719 756.933594 C 948.34375 757.308594 948.417969 757.636719 948.484375 757.925781 C 948.617188 758.5 948.714844 758.910156 948.777344 759.175781 C 948.847656 759.4375 948.886719 759.554688 948.886719 759.554688 C 950.417969 765.058594 953.300781 770.078125 957.175781 774.191406 C 958.863281 776.101562 960.609375 777.585938 962.175781 778.796875 C 962.976562 779.378906 963.734375 779.902344 964.4375 780.359375 C 965.160156 780.792969 965.820312 781.175781 966.414062 781.515625 C 967.636719 782.128906 968.570312 782.609375 969.226562 782.859375 C 969.878906 783.125 970.214844 783.257812 970.214844 783.257812 C 970.214844 783.257812 969.730469 783.109375 969.121094 782.925781 C 968.507812 782.757812 967.800781 782.464844 967.304688 782.324219 C 966.8125 782.171875 966.542969 782.128906 966.859375 782.359375 C 967.183594 782.570312 968.050781 783.148438 969.976562 783.890625 C 970.929688 784.296875 971.796875 784.546875 972.574219 784.796875 C 973.347656 785.050781 974.054688 785.207031 974.707031 785.355469 C 976.015625 785.675781 977.144531 785.800781 978.378906 785.941406 C 978.996094 786.007812 979.640625 786.007812 980.347656 786.03125 C 980.699219 786.035156 981.070312 786.042969 981.460938 786.046875 C 981.847656 786.027344 982.253906 786.003906 982.6875 785.980469 C 983.121094 785.953125 983.578125 785.921875 984.066406 785.890625 C 984.546875 785.84375 985.050781 785.765625 985.59375 785.691406 C 985.863281 785.652344 986.140625 785.613281 986.429688 785.570312 C 986.710938 785.527344 987.046875 785.480469 987.21875 785.4375 C 987.640625 785.351562 988.089844 785.261719 988.566406 785.164062 C 996.222656 783.609375 982.757812 785.351562 988.457031 784.359375 C 994.15625 783.371094 1006.222656 781.882812 1013.191406 781.015625 C 1020.160156 780.148438 1022.464844 779.753906 1030.953125 778.5 C 1039.441406 777.246094 1044.878906 776.722656 1052.59375 775.574219 C 1058.3125 774.71875 1062.191406 774.101562 1068.265625 773.257812 C 1071.574219 772.824219 1074.957031 772.382812 1078.21875 771.960938 C 1089.847656 770.542969 1102.585938 769.234375 1107.539062 768.632812 C 1112.957031 767.976562 1132.285156 765.363281 1133.128906 765.804688 C 1133.980469 766.246094 1146.367188 764.757812 1155.582031 763.03125 L 1155.691406 763.832031 L 1175.789062 761.117188 L 1193.667969 758.933594 C 1194.421875 758.859375 1195.21875 758.785156 1195.964844 758.714844 L 1196.078125 759.5625 L 1211.558594 757.917969 L 1218.261719 756.777344 C 1225.644531 756.183594 1232.644531 755.65625 1238.804688 755.277344 C 1246.722656 754.039062 1242.457031 754.273438 1250.222656 752.703125 C 1259.886719 750.75 1267.253906 748.050781 1267.253906 748.050781 C 1267.253906 748.050781 1275.421875 747.269531 1296.539062 744.414062 C 1317.644531 741.5625 1296.539062 744.414062 1320.816406 740.539062 C 1345.105469 736.660156 1337.980469 736.578125 1359.152344 734.148438 C 1370.640625 732.828125 1376.746094 732.089844 1391.21875 729.6875 C 1391.21875 729.683594 1391.257812 729.667969 1391.335938 729.648438 C 1391.414062 729.628906 1391.527344 729.601562 1391.675781 729.5625 C 1391.972656 729.496094 1392.394531 729.402344 1392.910156 729.285156 C 1393.945312 729.058594 1395.351562 728.753906 1396.835938 728.429688 C 1399.800781 727.796875 1403.074219 727.113281 1404.308594 726.878906 C 1412.65625 725.289062 1416.5625 724.25 1416.5625 724.25 C 1416.5625 724.25 1425.175781 722.871094 1423.832031 721.488281 C 1422.429688 720.046875 1435.097656 720.382812 1433.089844 719.75 C 1442.988281 715.285156 1437.5 714.246094 1431.953125 712.785156 C 1427.957031 711.492188 1419.386719 713.199219 1425.394531 710.4375 C 1428.632812 708.945312 1429.9375 710.65625 1437.390625 705.902344 C 1439.644531 704.464844 1441.984375 704.488281 1431.902344 704.558594 C 1430.589844 704.566406 1420.339844 705.707031 1412.234375 706.046875 C 1409.125 705.65625 1399.085938 708.066406 1400.765625 706.765625 C 1382.839844 708.824219 1364.351562 710.988281 1344.816406 713.347656 L 1325.132812 715.359375 L 1288.074219 719.753906 L 1281.925781 720.449219 C 1267.335938 723.34375 1228.542969 726.878906 1228.542969 726.878906 C 1228.542969 726.878906 1254.40625 722.421875 1215.398438 727.480469 C 1176.382812 732.539062 1147.324219 737.761719 1147.324219 737.761719 C 1147.324219 737.761719 1101.910156 744.335938 1062.804688 748.652344 C 1023.691406 752.96875 991.335938 758.3125 991.335938 758.3125 L 984.613281 759.257812 L 983.773438 759.375 L 983.5625 759.402344 L 983.464844 759.417969 L 983.421875 759.417969 L 983.246094 759.433594 C 983.019531 759.441406 982.777344 759.503906 982.558594 759.5 C 982.34375 759.496094 982.121094 759.515625 981.90625 759.523438 C 981.699219 759.503906 981.496094 759.492188 981.289062 759.496094 C 979.695312 759.351562 978.34375 758.816406 977.082031 757.816406 C 975.835938 756.824219 974.78125 755.320312 974.238281 753.691406 C 973.695312 752.050781 973.636719 750.386719 974.050781 748.832031 C 974.257812 748.046875 974.589844 747.273438 975.074219 746.480469 C 975.167969 746.273438 975.324219 746.085938 975.460938 745.886719 L 975.660156 745.578125 L 976.160156 744.894531 L 978.222656 742.082031 L 987.210938 729.792969 C 989.695312 726.523438 991.511719 722.828125 992.542969 718.972656 C 993.546875 715.109375 993.808594 711.082031 993.234375 707.179688 C 992.160156 699.363281 987.925781 692.082031 981.601562 687.339844 C 979.3125 685.648438 976.761719 684.300781 974.054688 683.347656 C 971.34375 682.394531 968.511719 681.828125 965.539062 681.648438 L 961.914062 681.46875 L 959.664062 681.375 L 955.546875 681.207031 L 947.308594 680.878906 L 947.355469 680.074219 C 946.742188 680.007812 946.078125 679.933594 945.457031 679.867188 L 938.011719 679.28125 L 930.5625 678.839844 L 913.769531 678.109375 L 913.796875 677.300781 C 909.914062 677.335938 905.386719 677.335938 901.753906 677.1875 C 898.121094 677.042969 895.378906 676.789062 895.058594 676.503906 C 894.746094 676.222656 890.542969 675.980469 885.855469 675.789062 C 881.167969 675.554688 875.996094 675.566406 873.730469 675.5 C 871.664062 675.453125 867.976562 675.3125 863.59375 675.152344 C 861.402344 675.078125 859.035156 675 856.609375 674.917969 C 855.394531 674.882812 854.167969 674.835938 852.941406 674.816406 C 851.710938 674.808594 850.484375 674.800781 849.269531 674.792969 C 846.542969 674.808594 843.710938 674.824219 840.949219 674.839844 C 835.859375 674.921875 832.609375 675.054688 827.816406 675.1875 C 824.585938 675.261719 821.839844 675.328125 819.011719 675.394531 C 816.183594 675.449219 813.277344 675.507812 809.722656 675.660156 C 806.171875 675.816406 803.910156 675.917969 801.8125 676.011719 C 799.714844 676.082031 797.773438 676.144531 794.867188 676.238281 C 789.054688 676.425781 778.984375 676.734375 774.214844 677.167969 C 769.441406 677.605469 780.679688 677.171875 774.253906 677.980469 C 767.828125 678.773438 767.832031 678.816406 763.3125 678.949219 C 758.792969 679.089844 763.273438 678.273438 763.273438 678.273438 C 763.273438 678.273438 760.050781 678.414062 754.242188 678.671875 L 744.605469 679.667969 C 744.605469 679.667969 743.480469 679.777344 740.425781 680.074219 C 737.375 680.394531 732.398438 680.890625 724.6875 681.609375 C 722.148438 681.851562 719.6875 682.085938 717.34375 682.308594 C 715 682.539062 712.773438 682.757812 710.707031 683.011719 C 706.570312 683.511719 703.058594 683.933594 700.472656 684.246094 C 695.714844 684.886719 691.46875 685.511719 687.050781 686.140625 C 681.738281 686.535156 676.371094 687.023438 670.929688 687.476562 C 668.207031 687.707031 665.46875 687.941406 662.714844 688.179688 C 659.957031 688.417969 657.183594 688.640625 654.398438 688.9375 C 648.828125 689.5 643.179688 690.070312 637.460938 690.648438 C 634.601562 690.945312 631.722656 691.242188 628.824219 691.539062 C 625.929688 691.875 623.015625 692.214844 620.085938 692.554688 L 620.195312 693.414062 C 610.910156 694.523438 601.613281 695.558594 592.351562 696.8125 C 583.085938 698.03125 573.804688 699.179688 564.558594 700.535156 L 558.386719 701.351562 C 554.730469 702.15625 549.628906 703.113281 544.050781 704.179688 C 538.472656 705.265625 532.410156 706.402344 526.796875 707.4375 C 523.992188 707.949219 521.300781 708.441406 518.84375 708.890625 C 516.390625 709.355469 514.167969 709.773438 512.296875 710.128906 C 508.550781 710.832031 506.207031 711.273438 506.207031 711.273438 C 506.207031 711.273438 517.195312 708.929688 513.851562 709.167969 C 513.699219 709.203125 513.328125 709.28125 513.328125 709.28125 L 501.019531 711.738281 C 494.886719 713.078125 492.582031 713.519531 492.527344 713.226562 L 492.476562 712.9375 C 489.652344 713.496094 486.847656 714.117188 484.03125 714.707031 C 478.714844 716.140625 472.59375 717.496094 472.59375 717.496094 C 468.242188 718.378906 463.878906 719.207031 459.535156 720.132812 L 432.726562 725.882812 C 432.726562 725.882812 430.394531 726.207031 424.222656 727.269531 C 418.046875 728.332031 417.410156 729.136719 417.410156 729.136719 L 429.035156 727.140625 C 422.292969 728.554688 415.484375 729.984375 408.589844 731.429688 C 401.699219 732.894531 394.722656 734.378906 387.636719 735.886719 L 380.589844 736.617188 C 380.589844 736.617188 384.269531 735.347656 380.480469 736.113281 C 371.289062 738.027344 367.558594 739.296875 367.558594 739.296875 L 367.613281 739.542969 L 366.054688 740.421875 C 355.605469 742.660156 345.214844 744.890625 335.207031 747.035156 L 330.128906 747.585938 L 321.65625 749.117188 L 307.882812 752.027344 C 302.464844 752.894531 300.867188 752.949219 300.867188 752.949219 C 295.671875 754.046875 291.675781 754.984375 288.28125 755.734375 L 281.007812 757.589844 C 281.007812 757.589844 279.992188 757.78125 277.902344 758.171875 C 276.589844 758.433594 274.9375 758.765625 272.558594 759.238281 C 268.015625 760.160156 266.527344 760.875 266.046875 761.167969 C 265.878906 761.273438 265.824219 761.335938 265.824219 761.335938 L 277.363281 758.960938 C 270.675781 760.585938 265.476562 762.121094 260.1875 763.65625 C 254.898438 765.195312 249.523438 766.734375 242.488281 768.425781 L 237.8125 769.058594 L 235.480469 769.375 C 235.480469 769.375 239.113281 767.988281 235.359375 768.875 C 226.234375 771.027344 222.542969 772.382812 222.542969 772.382812 L 222.601562 772.628906 L 221.96875 773.007812 L 221.066406 773.542969 C 212.214844 775.652344 204.679688 778.128906 196.113281 780.160156 C 194.632812 780.515625 193.0625 780.890625 191.597656 781.246094 L 180.355469 785.097656 L 171.933594 786.816406 L 158.789062 791.382812 C 153.402344 792.363281 151.8125 792.453125 151.8125 792.453125 C 145.734375 793.882812 140.867188 796.214844 137.214844 797.085938 C 133.355469 798.007812 130.972656 798.578125 128.753906 799.105469 C 128.730469 799.121094 128.722656 799.128906 128.699219 799.144531 C 125.089844 801.226562 122.308594 799.949219 121.597656 801.253906 C 121.597656 801.253906 115.367188 802.429688 101.082031 807.722656 C 86.796875 813.019531 87.5 813.160156 87.5 813.160156 C 87.5 813.160156 85.335938 813.875 81.902344 815.742188 C 78.472656 817.609375 83.480469 817.324219 93.042969 814.972656 C 102.601562 812.617188 96.027344 815.949219 96.027344 815.949219 C 96.027344 815.949219 98.40625 816.085938 110.148438 813.097656 C 121.894531 810.113281 106.039062 815.378906 96.292969 818.527344 C 86.542969 821.675781 93.257812 821.949219 93.007812 822.507812 C 92.761719 823.070312 78.789062 829.660156 92.492188 826.613281 C 107.835938 823.195312 120.886719 819.539062 120.886719 819.539062 C 120.886719 819.539062 114.191406 823.464844 132.722656 819.253906 Z M 132.722656 819.253906 " fill-opacity="1" fill-rule="nonzero"/></g></svg>