<svg xmlns="http://www.w3.org/2000/svg" xmlns:xlink="http://www.w3.org/1999/xlink" width="1080" zoomAndPan="magnify" viewBox="0 0 810 1012.49997" height="1350" preserveAspectRatio="xMidYMid meet" version="1.0"><defs><clipPath id="6fcf1bed3f"><path d="M 6 530 L 805 530 L 805 599 L 6 599 Z M 6 530 " clip-rule="nonzero"/></clipPath><clipPath id="60fae6d70f"><path d="M 8.105469 506 L 804.589844 530.339844 L 801.75 623.25 L 5.265625 598.910156 Z M 8.105469 506 " clip-rule="nonzero"/></clipPath><clipPath id="a056c07a84"><path d="M 8.105469 506 L 804.589844 530.339844 L 801.75 623.25 L 5.265625 598.910156 Z M 8.105469 506 " clip-rule="nonzero"/></clipPath><clipPath id="9982f873d8"><path d="M 8.105469 506 L 804.589844 530.339844 L 801.75 623.25 L 5.265625 598.910156 Z M 8.105469 506 " clip-rule="nonzero"/></clipPath><clipPath id="69ed89bee0"><path d="M 17 533 L 790 533 L 790 602 L 17 602 Z M 17 533 " clip-rule="nonzero"/></clipPath><clipPath id="3b779b9dfa"><path d="M 19.195312 511.042969 L 789.5 533.039062 L 786.933594 622.960938 L 16.628906 600.960938 Z M 19.195312 511.042969 " clip-rule="nonzero"/></clipPath><clipPath id="58d995f3f2"><path d="M 19.195312 511.042969 L 789.5 533.039062 L 786.933594 622.960938 L 16.628906 600.960938 Z M 19.195312 511.042969 " clip-rule="nonzero"/></clipPath><clipPath id="f9d7610bac"><path d="M 19.195312 511.042969 L 789.5 533.039062 L 786.933594 622.960938 L 16.628906 600.960938 Z M 19.195312 511.042969 " clip-rule="nonzero"/></clipPath></defs><g clip-path="url(#6fcf1bed3f)"><g clip-path="url(#60fae6d70f)"><g clip-path="url(#a056c07a84)"><g clip-path="url(#9982f873d8)"><path fill="#f34336" d="M 95.648438 538.308594 L 19.609375 590.425781 L 19.796875 590.289062 C 17.277344 592.214844 15.796875 593.554688 15.359375 594.3125 C 15.9375 593.308594 15.777344 592.21875 14.875 591.035156 C 14.417969 590.4375 13.933594 590.082031 13.421875 589.976562 C 13.554688 590.003906 13.792969 590.019531 14.132812 590.015625 C 14.210938 590.015625 14.289062 590.019531 14.371094 590.023438 C 16.558594 590.132812 23.324219 588.65625 34.664062 585.59375 L 34.601562 585.609375 L 182.746094 543.292969 C 192.984375 540.371094 200.179688 538.773438 204.332031 538.503906 L 204.007812 538.535156 C 206.09375 538.246094 207.835938 538.257812 209.242188 538.566406 C 212.300781 539.242188 214.027344 541.003906 214.421875 543.851562 C 214.550781 544.769531 214.484375 545.726562 214.21875 546.726562 C 213.734375 548.566406 212.476562 550.742188 210.4375 553.257812 L 210.597656 553.046875 C 207.246094 557.730469 192.066406 569.066406 165.0625 587.046875 L 165.242188 586.917969 C 164.621094 587.378906 164.226562 587.714844 164.054688 587.933594 C 164.945312 586.808594 164.859375 585.53125 163.796875 584.097656 L 163.800781 584.097656 C 163.386719 583.539062 162.957031 583.195312 162.5 583.0625 C 162.695312 583.121094 163.054688 583.160156 163.582031 583.1875 L 162.464844 583.273438 C 277.234375 559.957031 380.867188 545.167969 473.355469 538.90625 L 473.300781 538.910156 C 584.691406 529.996094 693.605469 528.359375 800.042969 533.996094 C 802.511719 534.125 804.40625 536.234375 804.277344 538.703125 C 804.144531 541.171875 802.039062 543.070312 799.566406 542.9375 C 693.527344 537.324219 585.011719 538.957031 474.015625 547.839844 L 473.960938 547.84375 C 381.867188 554.078125 278.628906 568.8125 164.25 592.046875 C 163.882812 592.121094 163.507812 592.152344 163.132812 592.132812 C 161.90625 592.070312 160.859375 591.914062 159.992188 591.660156 C 158.515625 591.230469 157.382812 590.484375 156.597656 589.421875 C 154.941406 587.179688 155.085938 584.832031 157.03125 582.375 C 157.699219 581.535156 158.660156 580.648438 159.917969 579.71875 C 159.976562 579.675781 160.035156 579.632812 160.097656 579.59375 C 186.195312 562.21875 200.597656 551.632812 203.316406 547.835938 C 203.367188 547.765625 203.421875 547.691406 203.476562 547.625 C 204.707031 546.105469 205.402344 545.042969 205.558594 544.441406 C 205.519531 544.601562 205.515625 544.816406 205.550781 545.082031 C 205.726562 546.347656 206.3125 547.09375 207.308594 547.3125 C 206.953125 547.234375 206.261719 547.265625 205.238281 547.40625 C 205.132812 547.421875 205.023438 547.433594 204.917969 547.4375 C 201.398438 547.667969 194.828125 549.15625 185.203125 551.902344 L 37.058594 594.222656 L 36.996094 594.238281 C 24.75 597.546875 17.058594 599.121094 13.925781 598.964844 L 14.160156 598.972656 C 13.191406 598.976562 12.328125 598.898438 11.578125 598.738281 C 9.917969 598.390625 8.644531 597.632812 7.753906 596.46875 C 6.246094 594.492188 6.195312 592.28125 7.601562 589.839844 C 8.636719 588.042969 10.890625 585.820312 14.363281 583.171875 C 14.421875 583.125 14.484375 583.082031 14.546875 583.039062 L 90.585938 530.921875 C 92.625 529.523438 95.414062 530.046875 96.8125 532.085938 C 98.207031 534.125 97.6875 536.910156 95.648438 538.308594 Z M 95.648438 538.308594 " fill-opacity="0.996" fill-rule="nonzero"/></g></g></g></g><g clip-path="url(#69ed89bee0)"><g clip-path="url(#3b779b9dfa)"><g clip-path="url(#58d995f3f2)"><g clip-path="url(#f9d7610bac)"><path fill="#f34336" d="M 103.917969 542.140625 L 30.484375 592.722656 L 30.664062 592.59375 C 28.230469 594.460938 26.800781 595.757812 26.382812 596.492188 C 26.9375 595.523438 26.78125 594.464844 25.90625 593.324219 C 25.460938 592.746094 24.992188 592.402344 24.5 592.300781 C 24.628906 592.328125 24.855469 592.339844 25.1875 592.339844 C 25.261719 592.339844 25.339844 592.339844 25.414062 592.34375 C 27.535156 592.445312 34.074219 591.003906 45.03125 588.019531 L 44.972656 588.035156 L 188.15625 546.792969 L 188.15625 546.789062 C 198.054688 543.941406 205.007812 542.382812 209.023438 542.113281 L 208.710938 542.144531 C 210.726562 541.863281 212.414062 541.867188 213.773438 542.167969 C 216.730469 542.8125 218.40625 544.515625 218.792969 547.269531 C 218.917969 548.15625 218.855469 549.085938 218.601562 550.054688 C 218.136719 551.832031 216.921875 553.941406 214.957031 556.378906 L 215.113281 556.175781 C 211.878906 560.714844 197.222656 571.714844 171.140625 589.167969 L 171.316406 589.046875 C 170.714844 589.492188 170.332031 589.820312 170.167969 590.03125 C 171.027344 588.941406 170.941406 587.703125 169.914062 586.316406 C 169.515625 585.78125 169.097656 585.449219 168.65625 585.320312 C 168.84375 585.375 169.191406 585.414062 169.699219 585.4375 L 168.621094 585.519531 C 279.566406 562.734375 379.757812 548.21875 469.191406 541.976562 L 469.140625 541.980469 C 576.84375 533.136719 682.167969 531.339844 785.109375 536.585938 C 787.5 536.707031 789.335938 538.742188 789.214844 541.132812 C 789.09375 543.523438 787.058594 545.363281 784.667969 545.242188 C 682.109375 540.011719 577.171875 541.804688 469.847656 550.621094 L 469.792969 550.625 C 380.742188 556.835938 280.933594 571.300781 170.363281 594.011719 C 170.007812 594.082031 169.648438 594.113281 169.285156 594.09375 C 168.097656 594.039062 167.085938 593.886719 166.246094 593.644531 C 164.816406 593.230469 163.71875 592.511719 162.960938 591.484375 C 161.351562 589.320312 161.488281 587.046875 163.367188 584.664062 C 164.007812 583.851562 164.9375 582.992188 166.152344 582.089844 C 166.207031 582.046875 166.265625 582.003906 166.324219 581.964844 C 191.527344 565.097656 205.441406 554.824219 208.058594 551.148438 C 208.109375 551.078125 208.160156 551.007812 208.214844 550.941406 C 209.402344 549.46875 210.070312 548.441406 210.222656 547.859375 C 210.183594 548.011719 210.179688 548.21875 210.21875 548.480469 C 210.390625 549.703125 210.957031 550.421875 211.921875 550.632812 C 211.574219 550.558594 210.90625 550.589844 209.917969 550.726562 C 209.816406 550.742188 209.710938 550.753906 209.605469 550.761719 C 206.207031 550.988281 199.855469 552.441406 190.550781 555.121094 L 47.367188 596.363281 L 47.304688 596.378906 C 35.46875 599.605469 28.03125 601.144531 25 601 L 25.230469 601.003906 C 24.292969 601.011719 23.460938 600.9375 22.734375 600.785156 C 21.125 600.449219 19.890625 599.722656 19.03125 598.597656 C 17.566406 596.683594 17.511719 594.546875 18.871094 592.179688 C 19.867188 590.441406 22.042969 588.285156 25.394531 585.714844 C 25.453125 585.667969 25.511719 585.625 25.574219 585.585938 L 99.007812 535 C 100.976562 533.644531 103.675781 534.140625 105.03125 536.113281 C 106.386719 538.085938 105.890625 540.78125 103.917969 542.140625 Z M 103.917969 542.140625 " fill-opacity="0.996" fill-rule="nonzero"/></g></g></g></g></svg>