<svg xmlns="http://www.w3.org/2000/svg" xmlns:xlink="http://www.w3.org/1999/xlink" width="810" zoomAndPan="magnify" viewBox="0 210 810 420" height="420" preserveAspectRatio="xMidYMid meet" version="1.0"><defs><g/><clipPath id="82654d8f65"><path d="M 0.199219 0 L 809.800781 0 L 809.800781 1012 L 0.199219 1012 Z M 0.199219 0 " clip-rule="nonzero"/></clipPath><clipPath id="f4004ed6e1"><path d="M 26 517 L 809.800781 517 L 809.800781 587 L 26 587 Z M 26 517 " clip-rule="nonzero"/></clipPath><clipPath id="aaaded9a4e"><path d="M 28.113281 493.851562 L 824.597656 518.191406 L 821.757812 611.101562 L 25.273438 586.761719 Z M 28.113281 493.851562 " clip-rule="nonzero"/></clipPath><clipPath id="256c11c7b7"><path d="M 28.113281 493.851562 L 824.597656 518.191406 L 821.757812 611.101562 L 25.273438 586.761719 Z M 28.113281 493.851562 " clip-rule="nonzero"/></clipPath><clipPath id="8ac1b43f20"><path d="M 28.113281 493.851562 L 824.597656 518.191406 L 821.757812 611.101562 L 25.273438 586.761719 Z M 28.113281 493.851562 " clip-rule="nonzero"/></clipPath><clipPath id="787a57a813"><path d="M 37 521 L 809.800781 521 L 809.800781 589 L 37 589 Z M 37 521 " clip-rule="nonzero"/></clipPath><clipPath id="ffbd3f0d79"><path d="M 39.203125 498.894531 L 809.507812 520.890625 L 806.941406 610.808594 L 36.636719 588.8125 Z M 39.203125 498.894531 " clip-rule="nonzero"/></clipPath><clipPath id="728c663e0b"><path d="M 39.203125 498.894531 L 809.507812 520.890625 L 806.941406 610.808594 L 36.636719 588.8125 Z M 39.203125 498.894531 " clip-rule="nonzero"/></clipPath><clipPath id="226988e3fc"><path d="M 39.203125 498.894531 L 809.507812 520.890625 L 806.941406 610.808594 L 36.636719 588.8125 Z M 39.203125 498.894531 " clip-rule="nonzero"/></clipPath></defs><g clip-path="url(#82654d8f65)"></g><g clip-path="url(#f4004ed6e1)"><g clip-path="url(#aaaded9a4e)"><g clip-path="url(#256c11c7b7)"><g clip-path="url(#8ac1b43f20)"><path fill="#f34336" d="M 115.65625 526.160156 L 39.617188 578.273438 L 39.800781 578.140625 C 37.28125 580.0625 35.804688 581.402344 35.367188 582.160156 C 35.945312 581.160156 35.78125 580.066406 34.878906 578.886719 C 34.421875 578.285156 33.9375 577.933594 33.429688 577.824219 C 33.5625 577.855469 33.800781 577.867188 34.140625 577.867188 C 34.21875 577.867188 34.296875 577.867188 34.375 577.871094 C 36.566406 577.980469 43.332031 576.503906 54.667969 573.441406 L 54.605469 573.460938 L 202.75 531.140625 C 212.992188 528.21875 220.1875 526.625 224.339844 526.351562 L 224.015625 526.386719 C 226.097656 526.097656 227.84375 526.105469 229.246094 526.417969 C 232.308594 527.09375 234.035156 528.855469 234.429688 531.703125 C 234.558594 532.621094 234.488281 533.578125 234.226562 534.578125 C 233.742188 536.414062 232.480469 538.589844 230.445312 541.105469 L 230.605469 540.894531 C 227.253906 545.582031 212.074219 556.914062 185.070312 574.894531 L 185.25 574.769531 C 184.628906 575.226562 184.234375 575.566406 184.058594 575.785156 C 184.949219 574.660156 184.867188 573.378906 183.804688 571.945312 C 183.394531 571.390625 182.960938 571.046875 182.507812 570.914062 C 182.699219 570.96875 183.058594 571.011719 183.585938 571.039062 L 182.472656 571.121094 C 297.242188 547.804688 400.871094 533.019531 493.363281 526.757812 L 493.308594 526.761719 C 604.699219 517.847656 713.613281 516.207031 820.046875 521.84375 C 822.515625 521.976562 824.414062 524.082031 824.28125 526.554688 C 824.152344 529.023438 822.042969 530.917969 819.574219 530.789062 C 713.535156 525.171875 605.019531 526.804688 494.023438 535.6875 L 493.96875 535.691406 C 401.875 541.925781 298.636719 556.660156 184.253906 579.898438 C 183.890625 579.972656 183.515625 580 183.140625 579.980469 C 181.914062 579.921875 180.863281 579.761719 179.996094 579.511719 C 178.519531 579.078125 177.390625 578.332031 176.605469 577.269531 C 174.949219 575.03125 175.09375 572.683594 177.039062 570.222656 C 177.703125 569.382812 178.664062 568.5 179.921875 567.570312 C 179.984375 567.523438 180.042969 567.484375 180.105469 567.441406 C 206.199219 550.066406 220.605469 539.480469 223.324219 535.683594 C 223.375 535.613281 223.425781 535.542969 223.484375 535.472656 C 224.714844 533.953125 225.40625 532.894531 225.566406 532.292969 C 225.523438 532.453125 225.523438 532.664062 225.558594 532.933594 C 225.734375 534.199219 226.320312 534.941406 227.316406 535.160156 C 226.957031 535.082031 226.269531 535.113281 225.246094 535.253906 C 225.136719 535.269531 225.03125 535.28125 224.921875 535.289062 C 221.40625 535.519531 214.835938 537.007812 205.210938 539.753906 L 57.066406 582.070312 L 57.003906 582.089844 C 44.753906 585.394531 37.0625 586.972656 33.929688 586.816406 L 34.167969 586.820312 C 33.195312 586.824219 32.335938 586.746094 31.585938 586.589844 C 29.925781 586.238281 28.648438 585.484375 27.761719 584.320312 C 26.25 582.339844 26.199219 580.132812 27.609375 577.6875 L 27.605469 577.6875 C 28.640625 575.894531 30.894531 573.671875 34.367188 571.023438 C 34.429688 570.976562 34.492188 570.929688 34.554688 570.886719 L 110.589844 518.773438 C 112.632812 517.375 115.417969 517.894531 116.816406 519.933594 C 118.214844 521.972656 117.695312 524.761719 115.65625 526.160156 Z M 115.65625 526.160156 " fill-opacity="0.996" fill-rule="nonzero"/></g></g></g></g><g clip-path="url(#787a57a813)"><g clip-path="url(#ffbd3f0d79)"><g clip-path="url(#728c663e0b)"><g clip-path="url(#226988e3fc)"><path fill="#f34336" d="M 123.925781 529.988281 L 50.492188 580.574219 L 50.667969 580.441406 C 48.234375 582.308594 46.808594 583.609375 46.386719 584.34375 C 46.945312 583.371094 46.785156 582.316406 45.910156 581.175781 C 45.46875 580.59375 45 580.253906 44.503906 580.152344 C 44.632812 580.179688 44.863281 580.191406 45.191406 580.1875 C 45.269531 580.1875 45.34375 580.191406 45.421875 580.195312 C 47.539062 580.292969 54.078125 578.851562 65.039062 575.867188 L 64.976562 575.882812 L 208.164062 534.640625 C 218.058594 531.792969 225.015625 530.234375 229.03125 529.960938 L 228.71875 529.996094 C 230.734375 529.710938 232.417969 529.71875 233.777344 530.015625 C 236.738281 530.664062 238.414062 532.363281 238.800781 535.121094 C 238.925781 536.007812 238.859375 536.9375 238.609375 537.902344 C 238.140625 539.683594 236.929688 541.789062 234.964844 544.230469 L 235.121094 544.027344 C 231.886719 548.566406 217.226562 559.5625 191.148438 577.019531 L 191.320312 576.894531 C 190.722656 577.339844 190.339844 577.667969 190.171875 577.878906 C 191.03125 576.789062 190.949219 575.550781 189.917969 574.167969 C 189.519531 573.628906 189.101562 573.296875 188.664062 573.167969 L 188.660156 573.167969 C 188.847656 573.222656 189.195312 573.261719 189.707031 573.289062 L 188.628906 573.371094 C 299.574219 550.582031 399.761719 536.066406 489.199219 529.828125 L 489.144531 529.832031 C 596.851562 520.988281 702.175781 519.1875 805.117188 524.433594 C 807.503906 524.554688 809.34375 526.59375 809.222656 528.984375 C 809.097656 531.371094 807.0625 533.210938 804.675781 533.089844 C 702.117188 527.863281 597.175781 529.65625 489.851562 538.46875 L 489.800781 538.472656 C 400.75 544.6875 300.9375 559.148438 190.371094 581.859375 C 190.015625 581.933594 189.652344 581.960938 189.292969 581.945312 C 188.105469 581.886719 187.089844 581.738281 186.25 581.492188 C 184.820312 581.078125 183.726562 580.359375 182.964844 579.332031 L 182.964844 579.335938 C 181.359375 577.167969 181.496094 574.894531 183.371094 572.511719 C 184.011719 571.699219 184.941406 570.839844 186.15625 569.9375 C 186.214844 569.894531 186.273438 569.855469 186.332031 569.8125 C 211.535156 552.949219 225.445312 542.675781 228.066406 538.996094 C 228.113281 538.925781 228.167969 538.859375 228.21875 538.792969 C 229.40625 537.316406 230.078125 536.289062 230.230469 535.710938 L 230.230469 535.707031 C 230.1875 535.863281 230.1875 536.070312 230.222656 536.328125 C 230.394531 537.554688 230.964844 538.269531 231.925781 538.480469 C 231.582031 538.40625 230.914062 538.4375 229.925781 538.578125 C 229.820312 538.59375 229.71875 538.601562 229.613281 538.609375 C 226.210938 538.839844 219.859375 540.292969 210.558594 542.96875 L 67.371094 584.214844 L 67.3125 584.230469 C 55.472656 587.457031 48.039062 588.996094 45.007812 588.851562 L 45.238281 588.855469 C 44.296875 588.859375 43.464844 588.785156 42.738281 588.636719 C 41.132812 588.300781 39.898438 587.570312 39.035156 586.445312 C 37.574219 584.535156 37.519531 582.394531 38.875 580.03125 C 39.871094 578.289062 42.046875 576.136719 45.402344 573.5625 C 45.460938 573.519531 45.519531 573.476562 45.578125 573.433594 L 119.015625 522.851562 C 120.984375 521.492188 123.679688 521.992188 125.035156 523.960938 C 126.394531 525.933594 125.894531 528.632812 123.925781 529.988281 Z M 123.925781 529.988281 " fill-opacity="0.996" fill-rule="nonzero"/></g></g></g></g><g fill="#000000" fill-opacity="1"><g transform="translate(69.374563, 360.385737)"><g><path d="M 0.78125 0 L 14.65625 -112.4375 L 36.65625 -112.4375 L 26.578125 -41.5 L 49.21875 -112.4375 L 70.15625 -112.4375 L 59.8125 -41.5 L 82.203125 -112.4375 L 104.453125 -112.4375 L 66.234375 0 L 39.265625 0 L 46.078125 -54.1875 L 28.265625 0 Z M 0.78125 0 "/></g></g></g><g fill="#000000" fill-opacity="1"><g transform="translate(162.56997, 360.385737)"><g><path d="M -7.859375 0 L 18.0625 -112.4375 L 63.078125 -112.4375 L 58.109375 -90.703125 L 35.984375 -90.703125 L 30.890625 -68.84375 L 52.09375 -68.84375 L 47.25 -47.640625 L 26.046875 -47.640625 L 20.015625 -21.859375 L 43.578125 -21.859375 L 38.609375 0 Z M -7.859375 0 "/></g></g></g><g fill="#000000" fill-opacity="1"><g transform="translate(216.49765, 360.385737)"><g/></g></g><g fill="#000000" fill-opacity="1"><g transform="translate(247.126482, 360.385737)"><g><path d="M -10.875 0 L 25.90625 -112.4375 L 64 -112.4375 L 48.8125 0 L 27.484375 0 L 30.09375 -18.1875 L 16.484375 -18.1875 L 10.984375 0 Z M 22.375 -36.125 L 32.578125 -36.125 L 40.703125 -93.328125 L 39.65625 -93.328125 Z M 22.375 -36.125 "/></g></g></g><g fill="#000000" fill-opacity="1"><g transform="translate(310.609299, 360.385737)"><g><path d="M 18.0625 1.046875 C 9.851562 1.046875 3.875 -1.523438 0.125 -6.671875 C -3.625 -11.816406 -4.453125 -18.882812 -2.359375 -27.875 L 9.546875 -79.71875 C 12.160156 -90.882812 16.347656 -99.300781 22.109375 -104.96875 C 27.867188 -110.644531 35.503906 -113.484375 45.015625 -113.484375 C 53.304688 -113.484375 59.457031 -111.210938 63.46875 -106.671875 C 67.488281 -102.140625 68.492188 -95.597656 66.484375 -87.046875 L 62.03125 -67.671875 L 39.65625 -67.671875 L 43.578125 -84.296875 C 44.273438 -87.523438 44.382812 -89.75 43.90625 -90.96875 C 43.425781 -92.1875 42.226562 -92.796875 40.3125 -92.796875 C 38.300781 -92.796875 36.75 -92.097656 35.65625 -90.703125 C 34.570312 -89.304688 33.722656 -87.257812 33.109375 -84.5625 L 20.015625 -28.140625 C 19.410156 -25.171875 19.367188 -23.007812 19.890625 -21.65625 C 20.410156 -20.3125 21.546875 -19.640625 23.296875 -19.640625 C 26.785156 -19.640625 29.179688 -22.472656 30.484375 -28.140625 L 35.203125 -48.421875 L 57.84375 -48.421875 L 53 -27.21875 C 48.632812 -8.375 36.988281 1.046875 18.0625 1.046875 Z M 18.0625 1.046875 "/></g></g></g><g fill="#000000" fill-opacity="1"><g transform="translate(372.652326, 360.385737)"><g><path d="M 1.703125 0 L 22.640625 -90.84375 L 9.296875 -90.84375 L 14.265625 -112.4375 L 63.484375 -112.4375 L 58.515625 -90.84375 L 45.15625 -90.84375 L 24.21875 0 Z M 1.703125 0 "/></g></g></g><g fill="#000000" fill-opacity="1"><g transform="translate(424.485719, 360.385737)"><g><path d="M 18.0625 1.046875 C 8.8125 1.046875 2.550781 -1.566406 -0.71875 -6.796875 C -4 -12.035156 -4.457031 -19.804688 -2.09375 -30.109375 L 16.875 -112.4375 L 38.734375 -112.4375 L 19.890625 -31.015625 C 19.109375 -27.441406 18.820312 -24.648438 19.03125 -22.640625 C 19.25 -20.640625 20.492188 -19.640625 22.765625 -19.640625 C 25.035156 -19.640625 26.757812 -20.617188 27.9375 -22.578125 C 29.113281 -24.546875 30.097656 -27.359375 30.890625 -31.015625 L 49.734375 -112.4375 L 71.59375 -112.4375 L 52.609375 -30.109375 C 50.253906 -19.804688 46.21875 -12.035156 40.5 -6.796875 C 34.789062 -1.566406 27.3125 1.046875 18.0625 1.046875 Z M 18.0625 1.046875 "/></g></g></g><g fill="#000000" fill-opacity="1"><g transform="translate(486.5287, 360.385737)"><g><path d="M -10.875 0 L 25.90625 -112.4375 L 64 -112.4375 L 48.8125 0 L 27.484375 0 L 30.09375 -18.1875 L 16.484375 -18.1875 L 10.984375 0 Z M 22.375 -36.125 L 32.578125 -36.125 L 40.703125 -93.328125 L 39.65625 -93.328125 Z M 22.375 -36.125 "/></g></g></g><g fill="#000000" fill-opacity="1"><g transform="translate(550.011552, 360.385737)"><g><path d="M -7.859375 0 L 18.0625 -112.4375 L 40.5625 -112.4375 L 19.109375 -19.109375 L 42.265625 -19.109375 L 37.828125 0 Z M -7.859375 0 "/></g></g></g><g fill="#000000" fill-opacity="1"><g transform="translate(601.975847, 360.385737)"><g><path d="M -7.859375 0 L 18.0625 -112.4375 L 40.5625 -112.4375 L 19.109375 -19.109375 L 42.265625 -19.109375 L 37.828125 0 Z M -7.859375 0 "/></g></g></g><g fill="#000000" fill-opacity="1"><g transform="translate(653.940141, 360.385737)"><g><path d="M 5.625 0 L 14.140625 -37.046875 L 13.609375 -112.4375 L 35.859375 -112.4375 L 33.375 -74.34375 L 48.421875 -112.4375 L 70.6875 -112.4375 L 35.34375 -37.046875 L 26.828125 0 Z M 5.625 0 "/></g></g></g><g fill="#38b6ff" fill-opacity="1"><g transform="translate(105.895587, 543.295398)"><g><path d="M 15.046875 1.046875 C 6.929688 1.046875 1.546875 -1.804688 -1.109375 -7.515625 C -3.773438 -13.234375 -3.753906 -21.898438 -1.046875 -33.515625 L 10.078125 -81.9375 C 12.515625 -92.320312 16.65625 -100.175781 22.5 -105.5 C 28.351562 -110.820312 35.859375 -113.484375 45.015625 -113.484375 C 52.429688 -113.484375 57.84375 -112 61.25 -109.03125 C 64.65625 -106.0625 66.488281 -101.738281 66.75 -96.0625 C 67.007812 -90.394531 66.132812 -83.113281 64.125 -74.21875 L 42.140625 -74.21875 L 44.5 -84.296875 C 45.101562 -86.992188 45.207031 -89.082031 44.8125 -90.5625 C 44.425781 -92.050781 43.273438 -92.796875 41.359375 -92.796875 C 37.078125 -92.796875 34.285156 -90.003906 32.984375 -84.421875 L 20.40625 -29.96875 C 19.625 -26.570312 19.453125 -24 19.890625 -22.25 C 20.328125 -20.507812 21.632812 -19.640625 23.8125 -19.640625 C 26 -19.640625 27.742188 -20.507812 29.046875 -22.25 C 30.359375 -24 31.40625 -26.570312 32.1875 -29.96875 L 35.859375 -46.078125 L 29.84375 -46.078125 L 34.28125 -65.4375 L 61.78125 -65.4375 L 46.71875 0 L 37.6875 0 L 35.984375 -9.421875 C 30.398438 -2.441406 23.421875 1.046875 15.046875 1.046875 Z M 15.046875 1.046875 "/></g></g></g><g fill="#38b6ff" fill-opacity="1"><g transform="translate(169.378416, 543.295398)"><g><path d="M -8.90625 0 L 17.015625 -112.4375 L 38.734375 -112.4375 L 12.828125 0 Z M -8.90625 0 "/></g></g></g><g fill="#38b6ff" fill-opacity="1"><g transform="translate(199.090994, 543.295398)"><g><path d="M 2.359375 0 L 14.390625 -112.5625 L 35.859375 -112.5625 L 26.4375 -36 L 51.4375 -112.5625 L 72.90625 -112.5625 L 33.109375 0 Z M 2.359375 0 "/></g></g></g><g fill="#38b6ff" fill-opacity="1"><g transform="translate(260.479535, 543.295398)"><g><path d="M -7.859375 0 L 18.0625 -112.4375 L 63.078125 -112.4375 L 58.109375 -90.703125 L 35.984375 -90.703125 L 30.890625 -68.84375 L 52.09375 -68.84375 L 47.25 -47.640625 L 26.046875 -47.640625 L 20.015625 -21.859375 L 43.578125 -21.859375 L 38.609375 0 Z M -7.859375 0 "/></g></g></g><g fill="#38b6ff" fill-opacity="1"><g transform="translate(314.407227, 543.295398)"><g/></g></g><g fill="#38b6ff" fill-opacity="1"><g transform="translate(345.036036, 543.295398)"><g><path d="M -10.875 0 L 25.90625 -112.4375 L 64 -112.4375 L 48.8125 0 L 27.484375 0 L 30.09375 -18.1875 L 16.484375 -18.1875 L 10.984375 0 Z M 22.375 -36.125 L 32.578125 -36.125 L 40.703125 -93.328125 L 39.65625 -93.328125 Z M 22.375 -36.125 "/></g></g></g><g fill="#38b6ff" fill-opacity="1"><g transform="translate(408.518888, 543.295398)"><g/></g></g><g fill="#38b6ff" fill-opacity="1"><g transform="translate(439.147697, 543.295398)"><g><path d="M 18.578125 1.046875 C 8.367188 1.046875 1.585938 -1.484375 -1.765625 -6.546875 C -5.128906 -11.609375 -5.503906 -19.765625 -2.890625 -31.015625 L -0.40625 -42.015625 L 21.71875 -42.015625 L 18.453125 -28.015625 C 17.140625 -22.429688 18.273438 -19.640625 21.859375 -19.640625 C 23.859375 -19.640625 25.40625 -20.226562 26.5 -21.40625 C 27.59375 -22.582031 28.441406 -24.566406 29.046875 -27.359375 C 29.921875 -31.023438 30.179688 -34.054688 29.828125 -36.453125 C 29.484375 -38.847656 28.832031 -40.851562 27.875 -42.46875 C 26.914062 -44.082031 25.082031 -46.59375 22.375 -50 L 14.921875 -59.6875 C 9.160156 -67.019531 7.28125 -75.132812 9.28125 -84.03125 C 11.46875 -93.632812 15.351562 -100.941406 20.9375 -105.953125 C 26.519531 -110.972656 33.546875 -113.484375 42.015625 -113.484375 C 52.128906 -113.484375 58.800781 -110.796875 62.03125 -105.421875 C 65.257812 -100.054688 65.523438 -91.660156 62.828125 -80.234375 L 39.921875 -80.234375 L 41.625 -87.953125 C 41.96875 -89.441406 41.832031 -90.617188 41.21875 -91.484375 C 40.613281 -92.359375 39.566406 -92.796875 38.078125 -92.796875 C 36.335938 -92.796875 34.898438 -92.316406 33.765625 -91.359375 C 32.628906 -90.398438 31.882812 -89.09375 31.53125 -87.4375 C 30.664062 -83.769531 31.890625 -79.972656 35.203125 -76.046875 L 45.40625 -63.484375 C 47.769531 -60.515625 49.648438 -57.695312 51.046875 -55.03125 C 52.441406 -52.375 53.332031 -49.234375 53.71875 -45.609375 C 54.113281 -41.992188 53.742188 -37.695312 52.609375 -32.71875 C 49.992188 -21.632812 46 -13.234375 40.625 -7.515625 C 35.257812 -1.804688 27.910156 1.046875 18.578125 1.046875 Z M 18.578125 1.046875 "/></g></g></g><g fill="#38b6ff" fill-opacity="1"><g transform="translate(499.489095, 543.295398)"><g><path d="M -7.859375 0 L 18.0625 -112.4375 L 40.4375 -112.4375 L 31.140625 -72.25 L 41.75 -72.25 L 51.046875 -112.4375 L 73.421875 -112.4375 L 47.5 0 L 25.125 0 L 36.90625 -51.046875 L 26.296875 -51.046875 L 14.515625 0 Z M -7.859375 0 "/></g></g></g><g fill="#38b6ff" fill-opacity="1"><g transform="translate(564.804431, 543.295398)"><g><path d="M 15.84375 -47.375 L 23.171875 -66.625 L 5.109375 -54.578125 L 0.65625 -67.40625 L 19.765625 -74.875 L 4.0625 -81.8125 L 14.265625 -94.640625 L 26.828125 -83.109375 L 28.40625 -101.828125 L 43.328125 -101.828125 L 36.90625 -83.515625 L 54.0625 -94.640625 L 58.640625 -81.8125 L 39.265625 -74.875 L 55.234375 -67.40625 L 44.890625 -54.578125 L 32.71875 -66.234375 L 30.765625 -47.375 Z M 15.84375 -47.375 "/></g></g></g><g fill="#38b6ff" fill-opacity="1"><g transform="translate(623.967807, 543.295398)"><g><path d="M 1.703125 0 L 22.640625 -90.84375 L 9.296875 -90.84375 L 14.265625 -112.4375 L 63.484375 -112.4375 L 58.515625 -90.84375 L 45.15625 -90.84375 L 24.21875 0 Z M 1.703125 0 "/></g></g></g></svg>